<svg xmlns="http://www.w3.org/2000/svg" width="163" height="120" viewBox="0 0 163 120" fill="none">
  <path d="M27.6653 34.2559C32.1516 28.5005 38.8804 22.802 43.3666 21.5054C47.8529 20.2087 50.0965 23.9997 50.0965 23.9997C50.0965 23.9997 50.8442 21 54.5828 21C58.3213 21 59.069 24 59.069 24C59.069 24 61.3121 21.7505 64.3029 22.5005C67.2938 23.2505 68.0415 25.5005 68.0415 25.5005C68.0415 25.5005 74.7707 25.5005 74.0229 31.5C74.0229 31.5 71.0321 36.75 69.5367 40.5C68.0413 44.25 66.8367 46.5178 66.8367 46.5178C66.8367 46.5178 75.5186 44.2495 75.5186 50.25C75.5185 56.2505 58.1712 62.6054 51.5914 65.0054L49.3483 71.7554C42.6189 75.5054 25.4221 74.0059 20.9358 67.2559L23.1789 61.2559C20.9355 50.25 23.1791 40.0113 27.6653 34.2559Z" fill="white"/>
  <path d="M59.069 24L58.0987 24.2418C58.1163 24.3123 58.1415 24.3807 58.1738 24.4457L59.069 24ZM68.0415 25.5005L67.0925 25.8159C67.0987 25.8344 67.1054 25.8528 67.1126 25.8709L68.0415 25.5005ZM74.0229 31.5L74.8918 31.995C74.957 31.8806 74.999 31.7544 75.0153 31.6237L74.0229 31.5ZM66.8367 46.5178L65.9536 46.0487C65.7674 46.3992 65.8061 46.8267 66.0523 47.138C66.2985 47.4494 66.7055 47.5856 67.0895 47.4853L66.8367 46.5178ZM51.5914 65.0054L51.2487 64.0659C50.9619 64.1705 50.7387 64.4003 50.6424 64.69L51.5914 65.0054ZM49.3483 71.7554L49.835 72.6289C50.0535 72.5072 50.2184 72.308 50.2972 72.0707L49.3483 71.7554ZM20.9358 67.2559L19.9991 66.9057C19.8868 67.2062 19.9254 67.5423 20.103 67.8094L20.9358 67.2559ZM35.8899 68.2559C36.4422 68.2559 36.8899 67.8082 36.8899 67.2559C36.8899 66.7036 36.4422 66.2559 35.8899 66.2559V68.2559ZM28.454 34.8707C30.651 32.0523 33.403 29.2414 36.1512 26.9809C38.9216 24.7022 41.5986 23.0573 43.6443 22.466L43.089 20.5447C40.6484 21.2501 37.7179 23.1027 34.8807 25.4363C32.0215 27.7881 29.166 30.7041 26.8766 33.6411L28.454 34.8707ZM43.6443 22.466C45.5449 21.9167 46.9184 22.4397 47.8402 23.0854C48.3125 23.4162 48.6701 23.784 48.9089 24.0694C49.0275 24.2111 49.1145 24.3298 49.1695 24.4091C49.197 24.4487 49.2163 24.4783 49.2274 24.4957C49.233 24.5044 49.2365 24.51 49.2379 24.5123C49.2386 24.5135 49.2388 24.5138 49.2385 24.5133C49.2383 24.513 49.238 24.5126 49.2376 24.5118C49.2374 24.5115 49.2371 24.5111 49.2369 24.5106C49.2367 24.5104 49.2365 24.51 49.2364 24.5099C49.2362 24.5095 49.236 24.5091 50.0965 23.9997C50.9571 23.4904 50.9568 23.49 50.9566 23.4895C50.9565 23.4893 50.9562 23.4889 50.956 23.4885C50.9556 23.4878 50.9551 23.4871 50.9546 23.4863C50.9537 23.4846 50.9525 23.4828 50.9513 23.4807C50.9488 23.4765 50.9457 23.4714 50.942 23.4655C50.9347 23.4535 50.925 23.438 50.9131 23.4193C50.8891 23.3818 50.8558 23.3312 50.8132 23.2696C50.728 23.1467 50.6046 22.9793 50.4428 22.7859C50.1207 22.401 49.637 21.9021 48.9876 21.4472C47.6661 20.5216 45.6746 19.7974 43.089 20.5447L43.6443 22.466ZM50.0965 23.9997C51.0668 24.2416 51.0667 24.2421 51.0666 24.2427C51.0665 24.2428 51.0664 24.2434 51.0663 24.2437C51.0661 24.2444 51.066 24.245 51.0658 24.2455C51.0656 24.2467 51.0653 24.2476 51.0651 24.2484C51.0647 24.25 51.0644 24.251 51.0644 24.2512C51.0642 24.2518 51.0648 24.2497 51.0661 24.2453C51.0687 24.2364 51.0742 24.2179 51.0832 24.1913C51.1013 24.1378 51.1328 24.0528 51.1813 23.9467C51.279 23.7328 51.4407 23.4445 51.6912 23.1573C52.1695 22.609 53.0229 22 54.5828 22V20C52.404 20 51.0143 20.8909 50.1841 21.8425C49.7805 22.3052 49.5215 22.7668 49.3622 23.1154C49.2822 23.2905 49.2261 23.4398 49.1887 23.5504C49.1699 23.6058 49.1558 23.6518 49.1456 23.6868C49.1405 23.7043 49.1364 23.7192 49.1332 23.7311C49.1316 23.737 49.1302 23.7422 49.1291 23.7467C49.1285 23.749 49.128 23.751 49.1275 23.7529C49.1272 23.7538 49.127 23.7547 49.1268 23.7555C49.1267 23.7559 49.1266 23.7565 49.1265 23.7567C49.1264 23.7573 49.1262 23.7579 50.0965 23.9997ZM54.5828 22C56.1426 22 56.996 22.6091 57.4743 23.1574C57.7248 23.4446 57.8865 23.733 57.9842 23.9469C58.0327 24.053 58.0642 24.138 58.0823 24.1915C58.0913 24.2181 58.0969 24.2366 58.0995 24.2455C58.1008 24.25 58.1013 24.252 58.1012 24.2515C58.1011 24.2512 58.1008 24.2503 58.1004 24.2487C58.1002 24.2479 58.1 24.2469 58.0997 24.2458C58.0995 24.2452 58.0994 24.2446 58.0992 24.2439C58.0991 24.2436 58.099 24.2431 58.099 24.2429C58.0988 24.2424 58.0987 24.2418 59.069 24C60.0393 23.7582 60.0392 23.7576 60.039 23.757C60.039 23.7568 60.0388 23.7562 60.0387 23.7558C60.0385 23.755 60.0383 23.7541 60.0381 23.7531C60.0376 23.7513 60.0371 23.7492 60.0365 23.747C60.0353 23.7425 60.0339 23.7373 60.0323 23.7313C60.0291 23.7194 60.025 23.7046 60.0199 23.6871C60.0097 23.6521 59.9956 23.6061 59.9769 23.5507C59.9394 23.4401 59.8833 23.2908 59.8033 23.1156C59.644 22.767 59.3851 22.3054 58.9814 21.8426C58.1512 20.8909 56.7615 20 54.5828 20V22ZM59.069 24C59.7771 24.7061 59.7768 24.7064 59.7766 24.7067C59.7765 24.7067 59.7762 24.707 59.7761 24.7072C59.7757 24.7075 59.7755 24.7078 59.7752 24.708C59.7747 24.7085 59.7743 24.7089 59.7741 24.7091C59.7736 24.7096 59.7736 24.7096 59.7742 24.7091C59.7752 24.708 59.7784 24.705 59.7835 24.7001C59.7937 24.6904 59.8119 24.6734 59.8376 24.6504C59.8892 24.6043 59.9706 24.5345 60.0788 24.4507C60.2963 24.2821 60.6153 24.0621 61.0126 23.8629C61.8099 23.4632 62.8679 23.1716 64.0597 23.4705L64.5462 21.5306C62.7472 21.0794 61.1882 21.5376 60.1162 22.0751C59.5789 22.3445 59.1502 22.6401 58.8537 22.8698C58.7048 22.9851 58.5876 23.0852 58.5048 23.1592C58.4634 23.1963 58.4304 23.2269 58.4064 23.2497C58.3943 23.2612 58.3845 23.2707 58.3769 23.2781C58.3731 23.2818 58.3699 23.285 58.3672 23.2876C58.3659 23.2889 58.3647 23.2901 58.3636 23.2912C58.3631 23.2917 58.3626 23.2922 58.3622 23.2926C58.3619 23.2929 58.3616 23.2932 58.3615 23.2933C58.3612 23.2936 58.3609 23.2939 59.069 24ZM64.0597 23.4705C65.3299 23.789 66.0908 24.4133 66.5335 24.9314C66.7582 25.1943 66.9047 25.4348 66.9924 25.6019C67.0361 25.6852 67.0647 25.7493 67.0806 25.7875C67.0886 25.8066 67.0934 25.8191 67.0952 25.8241C67.0962 25.8266 67.0964 25.8273 67.0959 25.826C67.0957 25.8253 67.0953 25.8241 67.0947 25.8224C67.0944 25.8216 67.0941 25.8206 67.0937 25.8195C67.0935 25.819 67.0934 25.8184 67.0932 25.8178C67.093 25.8175 67.0929 25.817 67.0928 25.8169C67.0927 25.8164 67.0925 25.8159 68.0415 25.5005C68.9905 25.1852 68.9903 25.1846 68.9901 25.1841C68.99 25.1839 68.9899 25.1834 68.9897 25.183C68.9895 25.1823 68.9892 25.1815 68.9889 25.1807C68.9884 25.179 68.9878 25.1772 68.9871 25.1753C68.9858 25.1715 68.9843 25.1671 68.9826 25.1621C68.9791 25.1522 68.9747 25.1402 68.9695 25.126C68.9589 25.0977 68.9447 25.0612 68.9264 25.0172C68.8898 24.9295 68.8365 24.812 68.7634 24.6726C68.6174 24.3944 68.3901 24.0255 68.054 23.6321C67.3752 22.8377 66.2668 21.962 64.5462 21.5306L64.0597 23.4705ZM68.0415 25.5005C68.0415 26.5005 68.0411 26.5005 68.0407 26.5005C68.0406 26.5005 68.0402 26.5005 68.04 26.5005C68.0397 26.5005 68.0394 26.5005 68.0392 26.5005C68.0388 26.5005 68.0389 26.5005 68.0393 26.5005C68.0401 26.5005 68.0425 26.5005 68.0464 26.5006C68.0541 26.5007 68.0678 26.501 68.0871 26.5015C68.1256 26.5027 68.186 26.5051 68.2651 26.5102C68.4236 26.5204 68.6546 26.5411 68.9315 26.583C69.492 26.6678 70.2077 26.8347 70.8858 27.1548C71.5618 27.4739 72.1591 27.925 72.5551 28.5604C72.9427 29.1825 73.1934 30.0703 73.0306 31.3763L75.0153 31.6237C75.2264 29.93 74.9163 28.568 74.2525 27.5027C73.597 26.4508 72.6523 25.777 71.7394 25.3461C70.8287 24.9162 69.9089 24.7082 69.2309 24.6055C68.8887 24.5537 68.5998 24.5275 68.3932 24.5143C68.2897 24.5076 68.2064 24.5042 68.1467 24.5024C68.1168 24.5015 68.0928 24.5011 68.0752 24.5008C68.0663 24.5007 68.0591 24.5006 68.0534 24.5006C68.0506 24.5005 68.0482 24.5005 68.0462 24.5005C68.0452 24.5005 68.0443 24.5005 68.0435 24.5005C68.0431 24.5005 68.0426 24.5005 68.0424 24.5005C68.0419 24.5005 68.0415 24.5005 68.0415 25.5005ZM76.5186 50.25C76.5186 48.4736 75.8579 47.185 74.7749 46.3451C73.7431 45.545 72.4362 45.2362 71.2617 45.1372C70.0721 45.0369 68.9041 45.1427 68.0487 45.2676C67.6174 45.3306 67.2571 45.3998 67.0025 45.4538C66.875 45.4808 66.7736 45.5041 66.7025 45.521C66.6669 45.5295 66.6389 45.5364 66.619 45.5413C66.609 45.5438 66.6011 45.5459 66.5952 45.5474C66.5923 45.5481 66.5899 45.5487 66.588 45.5492C66.5871 45.5495 66.5862 45.5497 66.5856 45.5498C66.5852 45.5499 66.5848 45.55 66.5847 45.5501C66.5843 45.5502 66.5839 45.5503 66.8367 46.5178C67.0895 47.4853 67.0892 47.4854 67.089 47.4854C67.089 47.4855 67.0888 47.4855 67.0887 47.4855C67.0885 47.4856 67.0885 47.4856 67.0886 47.4855C67.0888 47.4855 67.0896 47.4853 67.0908 47.485C67.0933 47.4843 67.0978 47.4832 67.1043 47.4816C67.1172 47.4783 67.1379 47.4732 67.166 47.4666C67.2221 47.4532 67.3071 47.4336 67.4171 47.4103C67.6373 47.3637 67.9552 47.3025 68.3378 47.2466C69.1103 47.1338 70.1127 47.0475 71.0937 47.1302C72.0896 47.2141 72.9532 47.4634 73.5493 47.9256C74.0941 48.3481 74.5186 49.0261 74.5186 50.25L76.5186 50.25ZM51.934 65.9448C55.2183 64.7469 61.2558 62.539 66.4777 59.8682C69.0846 58.5349 71.5385 57.0613 73.3547 55.5098C75.1232 53.9992 76.5186 52.2189 76.5186 50.25L74.5186 50.25C74.5186 51.2814 73.7455 52.5456 72.0557 53.9891C70.4137 55.3918 68.1195 56.7821 65.567 58.0876C60.4703 60.6943 54.5443 62.8638 51.2487 64.0659L51.934 65.9448ZM50.2972 72.0707L52.5403 65.3207L50.6424 64.69L48.3993 71.44L50.2972 72.0707ZM20.103 67.8094C21.3712 69.7176 23.4784 71.1776 25.9195 72.2495C28.3735 73.3272 31.2497 74.0504 34.1705 74.4346C37.0935 74.8191 40.0939 74.8682 42.8072 74.5779C45.5058 74.2891 47.99 73.657 49.835 72.6289L48.8615 70.8818C47.3418 71.7287 45.1529 72.3154 42.5943 72.5892C40.0503 72.8615 37.2093 72.8171 34.4313 72.4517C31.6509 72.086 28.966 71.403 26.7236 70.4183C24.4683 69.4279 22.7435 68.1691 21.7686 66.7024L20.103 67.8094ZM22.2422 60.9057L19.9991 66.9057L21.8725 67.6061L24.1156 61.6061L22.2422 60.9057ZM26.8766 33.6411C22.1667 39.6835 19.9133 50.2419 22.1991 61.4556L24.1588 61.0562C21.9578 50.2581 24.1915 40.339 28.454 34.8707L26.8766 33.6411ZM74.0229 31.5C73.154 31.005 73.154 31.0051 73.154 31.0051C73.1539 31.0052 73.1539 31.0053 73.1538 31.0054C73.1537 31.0056 73.1535 31.0059 73.1533 31.0063C73.1529 31.007 73.1523 31.0081 73.1515 31.0095C73.15 31.0122 73.1477 31.0162 73.1447 31.0215C73.1387 31.0319 73.13 31.0474 73.1186 31.0675C73.0958 31.1078 73.0624 31.167 73.0195 31.2434C72.9337 31.3962 72.8098 31.6182 72.6566 31.896C72.3503 32.4514 71.9263 33.2311 71.4551 34.1291C70.5169 35.9173 69.3755 38.2046 68.6078 40.1296L70.4656 40.8704C71.1934 39.0454 72.2951 36.8327 73.2261 35.0584C73.6895 34.1752 74.1067 33.408 74.4079 32.8618C74.5585 32.5889 74.6799 32.3713 74.7635 32.2224C74.8053 32.148 74.8376 32.0907 74.8594 32.0523C74.8703 32.033 74.8785 32.0185 74.8839 32.0089C74.8867 32.0041 74.8887 32.0005 74.89 31.9982C74.8907 31.997 74.8912 31.9962 74.8915 31.9956C74.8916 31.9954 74.8917 31.9952 74.8918 31.9951C74.8918 31.995 74.8918 31.995 74.8919 31.995C74.8919 31.995 74.8918 31.995 74.0229 31.5ZM68.6078 40.1296C67.8686 41.9834 67.2019 43.4691 66.7213 44.4889C66.4811 44.9986 66.2875 45.3917 66.1548 45.6558C66.0884 45.7879 66.0373 45.8876 66.0032 45.9536C65.9861 45.9866 65.9733 46.0112 65.965 46.0271C65.9608 46.035 65.9577 46.0408 65.9558 46.0444C65.9549 46.0463 65.9542 46.0475 65.9538 46.0482C65.9536 46.0486 65.9535 46.0488 65.9535 46.0489C65.9535 46.0489 65.9535 46.0489 65.9535 46.0489C65.9535 46.0489 65.9535 46.0488 65.9535 46.0488C65.9535 46.0488 65.9536 46.0487 66.8367 46.5178C67.7199 46.9869 67.7199 46.9868 67.72 46.9867C67.72 46.9867 67.72 46.9866 67.7201 46.9865C67.7202 46.9863 67.7203 46.9861 67.7204 46.9859C67.7207 46.9854 67.721 46.9848 67.7214 46.984C67.7222 46.9825 67.7233 46.9805 67.7246 46.9779C67.7274 46.9727 67.7313 46.9653 67.7363 46.9557C67.7463 46.9366 67.7609 46.9087 67.7796 46.8724C67.8172 46.7997 67.8719 46.693 67.9418 46.5539C68.0817 46.2756 68.2827 45.8673 68.5305 45.3414C69.0261 44.2897 69.7094 42.7666 70.4656 40.8704L68.6078 40.1296ZM68.0415 25.5005C67.1126 25.8709 67.1125 25.8706 67.1123 25.8702C67.1123 25.8701 67.1122 25.8698 67.1121 25.8696C67.1119 25.8692 67.1118 25.8689 67.1117 25.8686C67.1115 25.868 67.1113 25.8677 67.1113 25.8676C67.1112 25.8673 67.1114 25.8679 67.112 25.8694C67.1131 25.8723 67.1155 25.8786 67.119 25.8881C67.1259 25.9071 67.1373 25.9388 67.1517 25.982C67.1806 26.0687 67.2213 26.2004 67.2636 26.3672C67.3488 26.7036 67.4366 27.1682 67.452 27.6863C67.483 28.724 67.2281 29.8722 66.1965 30.7318L67.4769 32.2682C69.1454 30.8778 69.4929 29.0262 69.4512 27.6267C69.4303 26.9262 69.313 26.3128 69.2023 25.8759C69.1466 25.656 69.0916 25.4772 69.0492 25.35C69.028 25.2863 69.0099 25.2353 68.9963 25.1983C68.9894 25.1798 68.9838 25.1647 68.9794 25.1533C68.9772 25.1476 68.9753 25.1428 68.9738 25.1389C68.9731 25.137 68.9724 25.1353 68.9718 25.1338C68.9715 25.1331 68.9713 25.1324 68.971 25.1318C68.9709 25.1315 68.9707 25.1311 68.9707 25.1309C68.9705 25.1305 68.9703 25.1301 68.0415 25.5005ZM66.1965 30.7318C64.9048 31.8082 63.5762 32.6521 62.5663 33.228C62.0628 33.5151 61.642 33.7337 61.3494 33.8793C61.2032 33.9521 61.0893 34.0066 61.0133 34.0423C60.9754 34.0601 60.9469 34.0732 60.9287 34.0816C60.9195 34.0857 60.913 34.0887 60.9091 34.0904C60.9071 34.0913 60.9058 34.0919 60.9052 34.0922C60.9049 34.0923 60.9047 34.0924 60.9048 34.0924C60.9048 34.0924 60.9048 34.0923 60.9049 34.0923C60.905 34.0923 60.9051 34.0922 60.9051 34.0922C60.9052 34.0922 60.9054 34.0921 61.3116 35.0059C61.7178 35.9197 61.7179 35.9196 61.7181 35.9195C61.7182 35.9195 61.7183 35.9194 61.7185 35.9194C61.7187 35.9192 61.719 35.9191 61.7194 35.9189C61.7201 35.9186 61.721 35.9182 61.7221 35.9178C61.7242 35.9168 61.727 35.9156 61.7305 35.914C61.7374 35.9109 61.747 35.9065 61.7593 35.9009C61.7837 35.8897 61.8186 35.8737 61.8631 35.8528C61.9522 35.811 62.0801 35.7498 62.2409 35.6697C62.5625 35.5095 63.0168 35.2735 63.557 34.9654C64.6347 34.3508 66.0687 33.4418 67.4769 32.2682L66.1965 30.7318ZM59.069 24C58.1738 24.4457 58.1736 24.4452 58.1734 24.4448C58.1733 24.4446 58.173 24.4441 58.1729 24.4438C58.1726 24.4432 58.1723 24.4426 58.172 24.442C58.1714 24.4409 58.1709 24.4398 58.1704 24.4389C58.1695 24.4369 58.1687 24.4353 58.1681 24.434C58.1669 24.4315 58.1664 24.4304 58.1665 24.4306C58.1667 24.431 58.1694 24.4369 58.174 24.4482C58.1832 24.4708 58.2002 24.515 58.221 24.5803C58.2624 24.7107 58.3189 24.9262 58.3574 25.2233C58.4341 25.8144 58.4421 26.7456 58.1034 27.994L60.0336 28.5178C60.4425 27.0108 60.4508 25.814 60.3408 24.9661C60.286 24.5436 60.2024 24.2117 60.1271 23.9748C60.0895 23.8563 60.054 23.7617 60.0253 23.6915C60.011 23.6564 59.9983 23.6274 59.9879 23.6045C59.9827 23.593 59.9781 23.5831 59.9741 23.5747C59.9721 23.5706 59.9703 23.5668 59.9686 23.5633C59.9678 23.5616 59.967 23.56 59.9663 23.5585C59.9659 23.5578 59.9655 23.557 59.9652 23.5563C59.965 23.556 59.9648 23.5555 59.9647 23.5553C59.9644 23.5548 59.9642 23.5543 59.069 24ZM58.1034 27.994C57.9602 28.5215 57.5681 29.2713 56.9838 30.1565C56.4136 31.0203 55.7121 31.9367 55.0225 32.7819C54.3345 33.625 53.6681 34.3853 53.173 34.9353C52.9258 35.21 52.722 35.4315 52.5805 35.5838C52.5098 35.6599 52.4547 35.7187 52.4176 35.7581C52.3991 35.7778 52.385 35.7926 52.3758 35.8024C52.3712 35.8073 52.3677 35.8109 52.3655 35.8132C52.3645 35.8144 52.3637 35.8152 52.3632 35.8157C52.363 35.8159 52.3628 35.8161 52.3627 35.8162C52.3627 35.8162 52.3627 35.8162 52.3627 35.8162C52.3627 35.8162 52.3627 35.8162 53.0868 36.5059C53.8109 37.1956 53.811 37.1955 53.8111 37.1954C53.8111 37.1954 53.8112 37.1952 53.8114 37.1951C53.8116 37.1949 53.8119 37.1945 53.8123 37.1941C53.8131 37.1933 53.8142 37.1921 53.8157 37.1906C53.8185 37.1876 53.8226 37.1833 53.8279 37.1777C53.8385 37.1665 53.8539 37.1502 53.8739 37.1289C53.9138 37.0865 53.9719 37.0245 54.0458 36.945C54.1935 36.786 54.4045 36.5567 54.6596 36.2733C55.1692 35.707 55.858 34.9214 56.572 34.0464C57.2843 33.1735 58.0315 32.1996 58.6529 31.2583C59.2603 30.3383 59.8028 29.368 60.0336 28.5178L58.1034 27.994ZM50.0965 23.9997C49.1766 24.3919 49.1765 24.3916 49.1764 24.3913C49.1763 24.3912 49.1762 24.3909 49.1761 24.3907C49.176 24.3904 49.1758 24.39 49.1757 24.3898C49.1755 24.3893 49.1754 24.389 49.1753 24.3889C49.1752 24.3886 49.1755 24.3892 49.1761 24.3906C49.1772 24.3934 49.1796 24.3993 49.1832 24.4083C49.1903 24.4262 49.2019 24.4561 49.2167 24.4968C49.2464 24.5784 49.2888 24.7026 49.3343 24.8602C49.4261 25.178 49.5269 25.6189 49.5668 26.1144C49.6477 27.1186 49.4739 28.2134 48.6401 29.0499L50.0565 30.4619C51.4657 29.0483 51.666 27.2651 51.5603 25.9537C51.507 25.2915 51.3742 24.7152 51.2558 24.3052C51.1962 24.0991 51.1394 23.9317 51.0961 23.8128C51.0744 23.7532 51.056 23.7056 51.0423 23.671C51.0355 23.6538 51.0298 23.6397 51.0254 23.6291C51.0232 23.6238 51.0214 23.6193 51.0199 23.6157C51.0191 23.6139 51.0184 23.6124 51.0179 23.611C51.0176 23.6103 51.0173 23.6097 51.0171 23.6091C51.0169 23.6088 51.0168 23.6084 51.0167 23.6083C51.0166 23.6079 51.0164 23.6076 50.0965 23.9997ZM48.6401 29.0499C47.5461 30.1472 45.8876 31.6268 44.4863 32.8449C43.789 33.4511 43.1613 33.9875 42.7078 34.3724C42.4812 34.5648 42.2982 34.7191 42.1721 34.8253C42.1091 34.8783 42.0602 34.9193 42.0273 34.947C42.0108 34.9608 41.9983 34.9713 41.9899 34.9783C41.9857 34.9818 41.9826 34.9844 41.9805 34.9862C41.9795 34.987 41.9787 34.9877 41.9782 34.9881C41.978 34.9883 41.9778 34.9884 41.9777 34.9885C41.9776 34.9886 41.9776 34.9886 41.9776 34.9886C41.9776 34.9886 41.9776 34.9886 42.6189 35.7559C43.2603 36.5231 43.2603 36.5231 43.2603 36.5231C43.2604 36.523 43.2605 36.523 43.2605 36.5229C43.2607 36.5228 43.2609 36.5226 43.2612 36.5223C43.2618 36.5218 43.2627 36.5211 43.2638 36.5202C43.2661 36.5183 43.2694 36.5155 43.2738 36.5118C43.2826 36.5045 43.2955 36.4936 43.3124 36.4794C43.3463 36.4511 43.396 36.4093 43.46 36.3554C43.588 36.2477 43.7731 36.0915 44.002 35.8972C44.4599 35.5086 45.0938 34.9669 45.7985 34.3543C47.2011 33.135 48.9073 31.6146 50.0565 30.4619L48.6401 29.0499ZM22.4254 61.9133C23.3728 62.9993 25.1439 64.5712 27.4537 65.8765C29.7668 67.1836 32.6782 68.2559 35.8899 68.2559V66.2559C33.1203 66.2559 30.5486 65.3281 28.4377 64.1353C26.3236 62.9406 24.7298 61.5125 23.9325 60.5985L22.4254 61.9133Z" fill="black"/>
  <path d="M79.6255 107.361C79.6255 107.361 81.3785 108.111 86.6375 106.611C95.0174 104.221 104.168 98.3956 104.168 90.1113V51.1113H111.18V90.1113C111.18 100.285 102.725 108.769 91.4991 110.699C83.1315 109.611 79.6255 107.361 79.6255 107.361Z" fill="#EA4335" stroke="black" stroke-width="2"/>
  <path d="M62.0953 51.1113H69.1074V90.1113C69.1074 90.2326 69.109 90.3535 69.1124 90.4741C69.109 90.6029 69.1074 90.732 69.1074 90.8613C69.1074 100.646 78.7198 108.81 91.4989 110.699C89.9275 110.97 88.3018 111.111 86.6374 111.111C73.0832 111.111 62.0953 101.709 62.0953 90.1113V51.1113Z" fill="black" stroke="black" stroke-width="2" stroke-linejoin="round"/>
  <path d="M49.2409 32.1113H133.17V60.1113H49.2409C38.8837 60.1113 30.9388 53.6233 30.9388 46.1113C30.9388 38.5993 38.8837 32.1113 49.2409 32.1113Z" fill="#EA4335" stroke="black" stroke-width="2"/>
  <path fill-rule="evenodd" clip-rule="evenodd" d="M59.8903 48H59.7427C58.9924 55.58 52.6166 61.5 44.8624 61.5H74.7706L76.266 61.5V61.4259C75.7742 61.4749 75.2753 61.5 74.7706 61.5C67.0164 61.5 60.6406 55.58 59.8903 48Z" fill="black"/>
  <path d="M88.2248 46.5C88.2248 53.9602 82.1968 60 74.7707 60C67.3445 60 61.3165 53.9602 61.3165 46.5C61.3165 39.0398 67.3445 33 74.7707 33C82.1968 33 88.2248 39.0398 88.2248 46.5Z" fill="white" stroke="black" stroke-width="3"/>
  <ellipse cx="71.7798" cy="46.5" rx="2.99083" ry="3" fill="black"/>
  <path d="M58.3165 46.5C58.3165 53.9602 52.2886 60 44.8624 60C37.4362 60 31.4083 53.9602 31.4083 46.5C31.4083 39.0398 37.4362 33 44.8624 33C52.2886 33 58.3165 39.0398 58.3165 46.5Z" fill="white" stroke="black" stroke-width="3"/>
  <ellipse cx="41.8716" cy="46.5" rx="2.99083" ry="3" fill="black"/>
  <path d="M119.238 18.0658C122.977 17.3167 132.697 23.115 137.183 27.8166C140.665 31.4656 144.645 38.1716 148.046 54C149.013 58.5 146.55 61.5 146.55 61.5L148.046 66C145.055 74.25 126.113 78 121.128 76.5L119.633 72C119.633 72 116.248 72.0659 114.667 68.5154C110.458 56.672 108.642 50.1847 106.244 39.6332L89.3301 33.5075C89.3301 33.5075 85.5916 31.4335 87.087 27.066C88.5824 22.6985 92.7287 24.066 92.7287 24.066L99.711 26.5948C99.711 26.5948 100.953 23.893 102.789 23.1157C104.624 22.3384 107.361 23.1157 107.361 23.1157C107.361 23.1157 108.77 20.3167 111.014 19.5667C113.257 18.8167 115.315 20.2887 115.315 20.2887C115.315 20.2887 115.5 18.8148 119.238 18.0658Z" fill="white" stroke="black" stroke-width="2" stroke-linejoin="round"/>
  <path d="M109.165 30C111.907 30.5 117.539 32.7 118.138 37.5" stroke="black" stroke-width="2" stroke-linecap="round" stroke-linejoin="round"/>
  <path d="M121.128 28.5C123.87 29 127.11 31.5 127.858 35.25" stroke="black" stroke-width="2" stroke-linecap="round" stroke-linejoin="round"/>
  <path d="M128.606 26.25C130.849 27 133.092 29.25 133.839 32.25" stroke="black" stroke-width="2" stroke-linecap="round" stroke-linejoin="round"/>
  <path d="M10.5 9L11.5607 15.4393L18 16.5L11.5607 17.5607L10.5 24L9.43934 17.5607L3 16.5L9.43934 15.4393L10.5 9Z" fill="black"/>
  <path d="M45.5 96L46.5607 102.439L53 103.5L46.5607 104.561L45.5 111L44.4393 104.561L38 103.5L44.4393 102.439L45.5 96Z" fill="black"/>
</svg>