<svg width="25" height="24" viewBox="0 0 25 24" fill="none" xmlns="http://www.w3.org/2000/svg">
<path d="M5.66699 19H7.09199L16.867 9.225L15.442 7.8L5.66699 17.575V19ZM3.66699 21V16.75L16.867 3.575C17.067 3.39167 17.2878 3.25 17.5295 3.15C17.7712 3.05 18.0253 3 18.292 3C18.5587 3 18.817 3.05 19.067 3.15C19.317 3.25 19.5337 3.4 19.717 3.6L21.092 5C21.292 5.18333 21.4378 5.4 21.5295 5.65C21.6212 5.9 21.667 6.15 21.667 6.4C21.667 6.66667 21.6212 6.92083 21.5295 7.1625C21.4378 7.40417 21.292 7.625 21.092 7.825L7.91699 21H3.66699ZM16.142 8.525L15.442 7.8L16.867 9.225L16.142 8.525Z" fill="#313030"/>
</svg>
