<svg width="25" height="24" viewBox="0 0 25 24" fill="none" xmlns="http://www.w3.org/2000/svg">
<g clip-path="url(#clip0_288_15939)">
<path d="M0.666992 20V17.225C0.666992 16.6583 0.808659 16.1333 1.09199 15.65C1.37533 15.1667 1.76699 14.8 2.26699 14.55C2.50033 14.4333 2.72533 14.325 2.94199 14.225C3.17533 14.125 3.41699 14.0333 3.66699 13.95V20H0.666992ZM4.66699 13C3.83366 13 3.12533 12.7083 2.54199 12.125C1.95866 11.5417 1.66699 10.8333 1.66699 10C1.66699 9.16667 1.95866 8.45833 2.54199 7.875C3.12533 7.29167 3.83366 7 4.66699 7C5.50033 7 6.20866 7.29167 6.79199 7.875C7.37533 8.45833 7.66699 9.16667 7.66699 10C7.66699 10.8333 7.37533 11.5417 6.79199 12.125C6.20866 12.7083 5.50033 13 4.66699 13ZM4.66699 11C4.95033 11 5.18366 10.9083 5.36699 10.725C5.56699 10.525 5.66699 10.2833 5.66699 10C5.66699 9.71667 5.56699 9.48333 5.36699 9.3C5.18366 9.1 4.95033 9 4.66699 9C4.38366 9 4.14199 9.1 3.94199 9.3C3.75866 9.48333 3.66699 9.71667 3.66699 10C3.66699 10.2833 3.75866 10.525 3.94199 10.725C4.14199 10.9083 4.38366 11 4.66699 11ZM4.66699 20V17.2C4.66699 16.6333 4.80866 16.1167 5.09199 15.65C5.39199 15.1667 5.78366 14.8 6.26699 14.55C7.30033 14.0333 8.35033 13.65 9.41699 13.4C10.4837 13.1333 11.567 13 12.667 13C13.767 13 14.8503 13.1333 15.917 13.4C16.9837 13.65 18.0337 14.0333 19.067 14.55C19.5503 14.8 19.9337 15.1667 20.217 15.65C20.517 16.1167 20.667 16.6333 20.667 17.2V20H4.66699ZM6.66699 18H18.667V17.2C18.667 17.0167 18.617 16.85 18.517 16.7C18.4337 16.55 18.317 16.4333 18.167 16.35C17.267 15.9 16.3587 15.5667 15.442 15.35C14.5253 15.1167 13.6003 15 12.667 15C11.7337 15 10.8087 15.1167 9.89199 15.35C8.97533 15.5667 8.06699 15.9 7.16699 16.35C7.01699 16.4333 6.89199 16.55 6.79199 16.7C6.70866 16.85 6.66699 17.0167 6.66699 17.2V18ZM12.667 12C11.567 12 10.6253 11.6083 9.84199 10.825C9.05866 10.0417 8.66699 9.1 8.66699 8C8.66699 6.9 9.05866 5.95833 9.84199 5.175C10.6253 4.39167 11.567 4 12.667 4C13.767 4 14.7087 4.39167 15.492 5.175C16.2753 5.95833 16.667 6.9 16.667 8C16.667 9.1 16.2753 10.0417 15.492 10.825C14.7087 11.6083 13.767 12 12.667 12ZM12.667 10C13.217 10 13.6837 9.80833 14.067 9.425C14.467 9.025 14.667 8.55 14.667 8C14.667 7.45 14.467 6.98333 14.067 6.6C13.6837 6.2 13.217 6 12.667 6C12.117 6 11.642 6.2 11.242 6.6C10.8587 6.98333 10.667 7.45 10.667 8C10.667 8.55 10.8587 9.025 11.242 9.425C11.642 9.80833 12.117 10 12.667 10ZM20.667 13C19.8337 13 19.1253 12.7083 18.542 12.125C17.9587 11.5417 17.667 10.8333 17.667 10C17.667 9.16667 17.9587 8.45833 18.542 7.875C19.1253 7.29167 19.8337 7 20.667 7C21.5003 7 22.2087 7.29167 22.792 7.875C23.3753 8.45833 23.667 9.16667 23.667 10C23.667 10.8333 23.3753 11.5417 22.792 12.125C22.2087 12.7083 21.5003 13 20.667 13ZM20.667 11C20.9503 11 21.1837 10.9083 21.367 10.725C21.567 10.525 21.667 10.2833 21.667 10C21.667 9.71667 21.567 9.48333 21.367 9.3C21.1837 9.1 20.9503 9 20.667 9C20.3837 9 20.142 9.1 19.942 9.3C19.7587 9.48333 19.667 9.71667 19.667 10C19.667 10.2833 19.7587 10.525 19.942 10.725C20.142 10.9083 20.3837 11 20.667 11ZM21.667 20V13.95C21.917 14.0333 22.1503 14.125 22.367 14.225C22.6003 14.325 22.8337 14.4333 23.067 14.55C23.567 14.8 23.9587 15.1667 24.242 15.65C24.5253 16.1333 24.667 16.6583 24.667 17.225V20H21.667Z" fill="#313030"/>
</g>
<defs>
<clipPath id="clip0_288_15939">
<rect width="24" height="24" fill="white" transform="translate(0.666992)"/>
</clipPath>
</defs>
</svg>
