<svg width="25" height="24" viewBox="0 0 25 24" fill="none" xmlns="http://www.w3.org/2000/svg">
<g clip-path="url(#clip0_288_15935)">
<path d="M10.417 20.2501V14.2501H14.917V20.2501H20.917V11.2501C20.9171 11.1516 20.8977 11.054 20.8601 10.963C20.8225 10.8719 20.7672 10.7892 20.6976 10.7195L13.1976 3.21948C13.128 3.14974 13.0452 3.09443 12.9542 3.05668C12.8631 3.01894 12.7656 2.99951 12.667 2.99951C12.5684 2.99951 12.4708 3.01894 12.3798 3.05668C12.2887 3.09443 12.206 3.14974 12.1364 3.21948L4.63637 10.7195C4.56674 10.7892 4.51153 10.8719 4.47389 10.963C4.43625 11.054 4.41691 11.1516 4.41699 11.2501V20.2501H10.417Z" stroke="#313030" stroke-width="2" stroke-linecap="round" stroke-linejoin="round"/>
</g>
<defs>
<clipPath id="clip0_288_15935">
<rect width="24" height="24" fill="white" transform="translate(0.666992)"/>
</clipPath>
</defs>
</svg>
