<svg width="36" height="36" viewBox="0 0 36 36" fill="none" xmlns="http://www.w3.org/2000/svg">
<path d="M8.76771 18.0325L14.4918 14.8352C15.839 14.083 16.3006 12.4162 15.5227 11.1129C14.7449 9.80958 13.0227 9.36304 11.6752 10.1156L1.78418 15.6405L8.76771 18.0325Z" fill="#EA4335"/>
<path d="M13.0807 26.2497C14.0541 26.2497 15.0008 25.761 15.5226 24.887C16.3005 23.5836 15.8389 21.9172 14.4917 21.1647L4.60044 15.6401C3.25325 14.8872 1.53074 15.3344 0.752879 16.6374C-0.0249861 17.9407 0.436588 19.6072 1.78378 20.3597L11.6748 25.8843C12.1182 26.132 12.6028 26.2497 13.0804 26.2497H13.0807Z" fill="#4285F4"/>
<path d="M22.9201 26.2498C23.398 26.2498 23.882 26.1321 24.3257 25.8844L34.2167 20.3598L27.3222 17.918L21.5094 21.1647C20.1622 21.917 19.7006 23.5837 20.4785 24.887C21 25.7611 21.947 26.2498 22.9204 26.2498H22.9201Z" fill="#FBBC04"/>
<path d="M32.8063 20.7254C33.7797 20.7254 34.7264 20.2367 35.2482 19.3626C36.0261 18.0593 35.5645 16.3929 34.2173 15.6403L24.326 10.1154C22.9788 9.3632 21.2563 9.80945 20.4785 11.1128C19.7006 12.4161 20.1622 14.0825 21.5094 14.8351L31.4004 20.36C31.8438 20.6077 32.3283 20.7254 32.806 20.7254H32.8063Z" fill="#0F9D58"/>
</svg>
